HIERARCHY
ROOT Hips
{
	OFFSET 0.000000 0.000000 0.000000
	CHANNELS 6 Xposition Yposition Zposition Zrotation Yrotation Xrotation 
	JOINT LHipJoint
	{
		OFFSET 0.000000 0.000000 0.000000
		CHANNELS 3 Zrotation Yrotation Xrotation
		JOINT LeftUpLeg
		{
			OFFSET 1.363060 -1.794630 0.839290
			CHANNELS 3 Zrotation Yrotation Xrotation
			JOINT LeftLeg
			{
				OFFSET 2.448110 -6.726130 0.000000
				CHANNELS 3 Zrotation Yrotation Xrotation
				JOINT LeftFoot
				{
					OFFSET 2.562200 -7.039590 0.000000
					CHANNELS 3 Zrotation Yrotation Xrotation
					JOINT LeftToeBase
					{
						OFFSET 0.157640 -0.433110 2.322550
						CHANNELS 3 Zrotation Yrotation Xrotation
						End Site
						{
							OFFSET 0.000000 0.000000 0.000000
						}
					}
				}
			}
		}
	}
	JOINT RHipJoint
	{
		OFFSET 0.000000 0.000000 0.000000
		CHANNELS 3 Zrotation Yrotation Xrotation
		JOINT RightUpLeg
		{
			OFFSET -1.305520 -1.794630 0.839290
			CHANNELS 3 Zrotation Yrotation Xrotation
			JOINT RightLeg
			{
				OFFSET -2.542530 -6.985550 0.000000
				CHANNELS 3 Zrotation Yrotation Xrotation
				JOINT RightFoot
				{
					OFFSET -2.568260 -7.056230 0.000000
					CHANNELS 3 Zrotation Yrotation Xrotation
					JOINT RightToeBase
					{
						OFFSET -0.164730 -0.452590 2.363150
						CHANNELS 3 Zrotation Yrotation Xrotation
						End Site
						{
							OFFSET 0.000000 0.000000 0.000000
						}
					}
				}
			}
		}
	}
}
MOTION
Frames: 16
Frame Time: 0.008333
-3.955932 15.783922 0.621965 115.738622 -81.845821 -58.163951 -8.498365 -0.091413 2.919933 -16.086070 -18.784129 -86.891111 -2.840873 3.584078 50.179103 0.935306 -1.265115 -17.188812 -0.264800 -0.000000 -37.686100 8.045643 0.724829 4.607055 2.151948 7.531677 -90.085971 2.872755 -3.908204 44.369569 -0.033992 4.965200 -15.814552 -0.011200 -0.000000 -56.110200
-4.064077 15.664047 0.592309 119.417298 -81.763917 -61.554895 -8.455765 -0.001490 3.004173 -15.998479 -18.978028 -88.326617 -2.806792 3.794684 51.387721 0.802131 -1.975751 -17.393380 -0.210200 0.000000 -37.681100 8.050682 0.924921 4.606040 1.764308 7.997637 -91.368161 2.575716 -4.177232 47.389284 -0.153424 4.914592 -17.256681 -0.019600 0.000000 -55.933000
-4.171550 15.541405 0.563210 123.076426 -81.738758 -65.085128 -8.413596 0.046143 3.019805 -15.866970 -19.010606 -89.628960 -2.692291 4.031630 53.056486 0.715990 -2.467395 -17.707730 -0.172000 0.000000 -37.322400 8.054488 1.129459 4.591965 1.459716 8.518357 -92.411153 2.272182 -4.412232 50.362101 -0.292363 4.785737 -18.723377 -0.021400 0.000000 -55.578800
-4.279053 15.416811 0.535097 126.711040 -81.766231 -68.738951 -8.370579 0.044142 2.979249 -15.664594 -18.903907 -90.791687 -2.500638 4.280364 55.131165 0.682347 -2.726686 -18.163178 -0.152600 -0.000000 -36.636900 8.057078 1.330890 4.565702 1.247250 9.088694 -93.218057 1.970318 -4.614727 53.275493 -0.450675 4.584485 -20.236974 -0.011400 0.000000 -55.000799
-4.387092 15.291396 0.507997 130.497122 -81.835226 -72.684517 -8.325503 -0.008520 2.888444 -15.386992 -18.656713 -91.796234 -2.243917 4.529611 57.541348 0.700822 -2.762878 -18.784165 -0.154500 -0.000000 -35.681701 8.059728 1.526874 4.528337 1.122887 9.717792 -93.784744 1.674287 -4.784135 56.116613 -0.626838 4.318216 -21.807477 0.015300 -0.000000 -54.181400
-4.496194 15.166218 0.481927 134.490826 -81.928468 -76.965657 -8.278357 -0.110647 2.759180 -15.033171 -18.285805 -92.628217 -1.937788 4.768617 60.200360 0.765644 -2.602286 -19.573937 -0.180900 -0.000000 -34.568600 8.065286 1.714229 4.481590 1.079725 10.400279 -94.120449 1.388258 -4.923190 58.876410 -0.817924 3.997594 -23.437250 0.063100 0.000000 -53.124300
-4.607084 15.042262 0.456831 138.680676 -82.024024 -81.552504 -8.230918 -0.256975 2.605248 -14.613647 -17.817311 -93.273596 -1.600039 4.989183 63.013409 0.867176 -2.283602 -20.517169 -0.234600 -0.000000 -33.465200 8.077729 1.889635 4.428707 1.105629 11.122029 -94.241060 1.115073 -5.035895 61.545162 -1.019596 3.633854 -25.113550 0.134901 0.000000 -51.892400
-4.720428 14.920477 0.432562 142.968391 -82.101020 -86.325582 -8.185919 -0.438868 2.440948 -14.146656 -17.285737 -93.723833 -1.248046 5.185903 65.885005 0.993643 -1.852198 -21.582424 -0.317099 0.000000 -32.578400 8.101269 2.050046 4.374225 1.183718 11.861965 -94.170570 0.856239 -5.127247 64.113099 -1.226728 3.237468 -26.812055 0.232200 0.000000 -50.561399
-4.836827 14.802081 0.409007 147.185325 -82.142954 -91.094433 -8.148336 -0.645641 2.279353 -13.655165 -16.729559 -93.976230 -0.897235 5.355872 68.724065 1.133350 -1.352800 -22.728886 -0.427400 0.000000 -32.113500 8.137328 2.192288 4.322450 1.296807 12.595669 -93.935703 0.612632 -5.201860 66.565972 -1.433905 2.817570 -28.498673 0.354799 0.000000 -49.213500
-4.956765 14.688133 0.385863 151.127872 -82.142780 -95.632817 -8.121365 -0.863189 2.133020 -13.165786 -16.188594 -94.035864 -0.560188 5.497639 71.450406 1.276544 -0.823798 -23.912646 -0.562200 -0.000000 -32.229301 8.188167 2.314528 4.280003 1.424983 13.298351 -93.566271 0.383463 -5.263739 68.888070 -1.636011 2.378381 -30.129726 0.501300 -0.000000 -47.991400
-5.080648 14.579926 0.362984 154.609114 -82.105667 -99.731091 -8.106815 -1.077759 2.011313 -12.701443 -15.697781 -93.914977 -0.246661 5.610496 73.995915 1.416479 -0.293685 -25.094206 -0.716499 0.000000 -32.994400 8.254301 2.415783 4.251642 1.553023 13.949055 -93.089133 0.168358 -5.315591 71.059391 -1.829228 1.921500 -31.665636 0.669800 -0.000000 -46.979900
-5.208863 14.478784 0.340169 157.498165 -82.045108 -103.238497 -8.104266 -1.276224 1.921330 -12.282613 -15.283883 -93.628230 0.035895 5.693887 76.305231 1.549822 0.220879 -26.241863 -0.885300 -0.000000 -34.377000 8.335906 2.495637 4.241890 1.669059 14.532156 -92.525466 -0.033015 -5.358516 73.056452 -2.011260 1.444458 -33.070959 0.858899 0.000000 -46.266001
-5.341569 14.386291 0.317200 159.732318 -81.978251 -106.078630 -8.111533 -1.447595 1.867669 -11.926181 -14.963199 -93.189006 0.281860 5.747260 78.335121 1.676352 0.714962 -27.333361 -1.065200 -0.000000 -36.251600 8.432440 2.553772 4.254280 1.765916 15.037874 -91.888298 -0.220280 -5.392122 74.853075 -2.181753 0.941641 -34.320579 1.067700 -0.000000 -45.919200
-5.478955 14.304145 0.294066 161.319683 -81.923192 -108.249416 -8.125501 -1.584634 1.851201 -11.642561 -14.740180 -92.605966 0.486873 5.769916 80.051743 1.798124 1.192893 -28.356282 -1.255000 -0.000000 -38.424300 8.542063 2.589698 4.288975 1.843587 15.463139 -91.178387 -0.391189 -5.414645 76.420759 -2.342563 0.407410 -35.408211 1.296700 0.000000 -45.917000
-5.621215 14.234158 0.270681 162.312986 -81.894847 -109.799971 -8.142480 -1.682614 1.870595 -11.439506 -14.607594 -91.878802 0.647597 5.761090 81.430921 1.918439 1.664651 -29.306046 -1.455800 0.000000 -40.670400 8.663197 2.602320 4.345739 1.905651 15.810093 -90.386323 -0.542547 -5.423529 77.731365 -2.497168 -0.164467 -36.341194 1.547299 0.000000 -46.228300
-5.768318 14.178333 0.247051 162.792552 -81.903746 -110.816871 -8.159289 -1.739940 1.921198 -11.320685 -14.548030 -90.997826 0.761645 5.720344 82.455706 2.040760 2.142095 -30.183516 -1.670100 -0.000000 -42.770200 8.793264 2.590475 4.421371 1.961146 16.084814 -89.489984 -0.669503 -5.415920 78.758211 -2.650361 -0.777120 -37.145263 1.821601 -0.000000 -46.739500
